<?xml version="1.0" encoding="UTF-8" standalone="no"?>
<!-- Created with Inkscape (http://www.inkscape.org/) -->

<svg
   xmlns:dc="http://purl.org/dc/elements/1.1/"
   xmlns:cc="http://creativecommons.org/ns#"
   xmlns:rdf="http://www.w3.org/1999/02/22-rdf-syntax-ns#"
   xmlns:svg="http://www.w3.org/2000/svg"
   xmlns="http://www.w3.org/2000/svg"
   xmlns:sodipodi="http://sodipodi.sourceforge.net/DTD/sodipodi-0.dtd"
   xmlns:inkscape="http://www.inkscape.org/namespaces/inkscape"
   width="250.00002"
   height="500.00003"
   viewBox="0 0 66.145836 132.29167"
   version="1.1"
   id="svg8"
   inkscape:version="0.92.3 (2405546, 2018-03-11)"
   sodipodi:docname="jump2.svg">
  <defs
     id="defs2" />
  <sodipodi:namedview
     id="base"
     pagecolor="#ffffff"
     bordercolor="#666666"
     borderopacity="1.0"
     inkscape:pageopacity="0.0"
     inkscape:pageshadow="2"
     inkscape:zoom="1.4"
     inkscape:cx="22.048556"
     inkscape:cy="180.63291"
     inkscape:document-units="mm"
     inkscape:current-layer="layer1"
     showgrid="false"
     fit-margin-top="0"
     fit-margin-left="0"
     fit-margin-right="0"
     fit-margin-bottom="0"
     units="px"
     inkscape:window-width="1600"
     inkscape:window-height="836"
     inkscape:window-x="0"
     inkscape:window-y="27"
     inkscape:window-maximized="1" />
  <metadata
     id="metadata5">
    <rdf:RDF>
      <cc:Work
         rdf:about="">
        <dc:format>image/svg+xml</dc:format>
        <dc:type
           rdf:resource="http://purl.org/dc/dcmitype/StillImage" />
        <dc:title />
      </cc:Work>
    </rdf:RDF>
  </metadata>
  <g
     inkscape:label="Layer 1"
     inkscape:groupmode="layer"
     id="layer1"
     transform="translate(-69.736572,-46.70417)">
    <path
       style="fill:none;stroke-width:0.17772366;stroke:none"
       d="m 111.26515,91.704453 c 4.84844,0.260301 9.46227,-2.004361 13.63031,-4.229538 2.80822,-1.565295 10.02326,-6.459788 4.53416,-8.946702 -4.30827,-0.188209 -9.0303,-2.020819 -13.08196,0.213579 -3.4931,2.302462 -7.36834,5.595472 -7.72492,10.039682 -0.0583,1.4491 0.97408,3.282111 2.64241,2.922979 z"
       id="path938"
       inkscape:connector-curvature="0" />
    <g
       id="g931"
       transform="matrix(0.844271,0,0,0.844271,-44.958498,28.31332)">
      <path
         sodipodi:nodetypes="cccccccccccccccccccccccccccccccccccc"
         inkscape:connector-curvature="0"
         id="path934-3"
         d="m 140.68906,178.47649 c -2.95866,-3.2726 0.86017,-6.99633 3.46763,-8.93178 3.38078,-2.2038 5.44072,-5.62473 8.21779,-8.42246 2.28965,-2.86404 17.34765,-16.73916 15.91005,-20.85236 -1.20728,-2.22102 -6.19756,-1.02704 -3.52554,-4.26636 3.0586,-5.2372 9.37069,-7.29123 12.8005,-12.20982 -2.81138,-0.89678 -5.59541,2.02887 -8.2569,2.95747 -2.43465,0.84416 -7.53444,4.10823 -8.59748,2.46179 4.18615,-2.40065 8.56824,-4.43664 13.0445,-6.25977 3.9174,-1.74265 7.9801,-4.02592 9.93853,-8.03111 -1.59318,-4.56934 -5.10268,-9.5518 -2.71604,-14.4702 1.02308,-3.051513 6.33561,-7.108933 8.01534,-2.738463 -1.00538,1.10573 -3.99203,-0.92992 -5.13096,1.64635 -2.38306,2.811723 -3.97178,8.517133 -0.0519,10.721863 3.46814,1.19236 7.2066,-0.46691 10.30641,-2.00511 2.86135,-1.69702 6.07977,-4.40534 6.05879,-7.99761 -0.64663,-3.608253 -4.94046,-4.022753 -7.8001,-4.930613 -3.27134,-1.38306 3.40679,-2.30395 4.68173,-0.9791 4.11327,1.832 5.99613,7.809283 2.75295,11.270963 -3.1025,5.16335 -10.11858,5.06688 -14.01893,9.25111 -1.95937,1.79008 -0.8054,5.31724 1.91885,3.29598 3.14408,-1.61569 6.15044,-3.48789 9.36076,-4.95313 5.26522,-3.05412 11.28807,-5.34602 15.37398,-10.02368 1.10284,-1.63149 -0.81936,2.90329 -1.77917,3.38883 -4.50333,4.46974 -11.12798,5.64807 -16.06073,9.51338 -6.56409,3.45568 -14.1539,6.08559 -18.53287,12.46843 -1.61198,0.8552 -5.79343,5.80602 -1.4085,3.58153 5.86706,-2.38283 12.12764,-4.43927 18.54218,-4.30784 1.27549,2.94514 -11.82961,19.1875 -14.09995,20.76622 -3.00217,-0.36505 12.22321,-17.37953 11.99561,-19.10059 -3.23854,-1.07449 -6.71489,0.97144 -9.95571,1.59919 -4.12031,1.72399 -8.80596,2.32603 -12.49722,4.97423 -3.0938,2.30169 3.46495,3.67421 1.86243,7.045 -0.8498,4.64902 -15.33423,18.4007 -18.30608,21.69821 -2.32342,4.10029 -7.85512,5.69941 -9.1769,10.4358 0.0762,2.36396 0.68128,3.07144 -2.33305,3.40365 z"
         style="fill:#000000;stroke-width:0.16902934" />
      <path
         sodipodi:nodetypes="cccc"
         inkscape:connector-curvature="0"
         id="path850-6"
         d="m 139.92401,144.50495 c 4.8128,-5.03987 14.36489,-13.67438 19.79253,-18.04723 -4.00092,4.8279 -13.444,12.61785 -18.1042,16.71501 -0.46579,0.54441 -0.97481,1.11996 -1.68833,1.33222 z"
         style="fill:#000000;stroke-width:0.16902934" />
      <path
         inkscape:connector-curvature="0"
         id="path850-7"
         d="m 137.27818,158.11209 c 4.81279,-5.03987 9.92366,-9.80012 15.35131,-14.17297 -4.00092,4.8279 -9.00278,8.74359 -13.66299,12.84075 -0.46579,0.54441 -0.97481,1.11996 -1.68832,1.33222 z"
         style="fill:#000000;stroke-width:0.16902934" />
    </g>
  </g>
</svg>
