<?xml version="1.0" encoding="UTF-8" standalone="no"?>
<!-- Created with Inkscape (http://www.inkscape.org/) -->

<svg
   xmlns:dc="http://purl.org/dc/elements/1.1/"
   xmlns:cc="http://creativecommons.org/ns#"
   xmlns:rdf="http://www.w3.org/1999/02/22-rdf-syntax-ns#"
   xmlns:svg="http://www.w3.org/2000/svg"
   xmlns="http://www.w3.org/2000/svg"
   xmlns:sodipodi="http://sodipodi.sourceforge.net/DTD/sodipodi-0.dtd"
   xmlns:inkscape="http://www.inkscape.org/namespaces/inkscape"
   width="250.00002"
   height="500.00003"
   viewBox="0 0 66.145836 132.29167"
   version="1.1"
   id="svg8"
   inkscape:version="0.92.3 (2405546, 2018-03-11)"
   sodipodi:docname="jump1.svg">
  <defs
     id="defs2" />
  <sodipodi:namedview
     id="base"
     pagecolor="#ffffff"
     bordercolor="#666666"
     borderopacity="1.0"
     inkscape:pageopacity="0.0"
     inkscape:pageshadow="2"
     inkscape:zoom="0.98994949"
     inkscape:cx="-55.756129"
     inkscape:cy="220.41707"
     inkscape:document-units="mm"
     inkscape:current-layer="layer1"
     showgrid="false"
     fit-margin-top="0"
     fit-margin-left="0"
     fit-margin-right="0"
     fit-margin-bottom="0"
     units="px"
     inkscape:window-width="1600"
     inkscape:window-height="836"
     inkscape:window-x="0"
     inkscape:window-y="27"
     inkscape:window-maximized="1" />
  <metadata
     id="metadata5">
    <rdf:RDF>
      <cc:Work
         rdf:about="">
        <dc:format>image/svg+xml</dc:format>
        <dc:type
           rdf:resource="http://purl.org/dc/dcmitype/StillImage" />
        <dc:title />
      </cc:Work>
    </rdf:RDF>
  </metadata>
  <g
     inkscape:label="Layer 1"
     inkscape:groupmode="layer"
     id="layer1"
     transform="translate(-69.736572,-46.70417)">
    <path
       style="fill:none;stroke-width:0.17772366;stroke:none"
       d="m 111.26515,91.704453 c 4.84844,0.260301 9.46227,-2.004361 13.63031,-4.229538 2.80822,-1.565295 10.02326,-6.459788 4.53416,-8.946702 -4.30827,-0.188209 -9.0303,-2.020819 -13.08196,0.213579 -3.4931,2.302462 -7.36834,5.595472 -7.72492,10.039682 -0.0583,1.4491 0.97408,3.282111 2.64241,2.922979 z"
       id="path938"
       inkscape:connector-curvature="0" />
    <path
       style="fill:#000000;stroke-width:0.17772366"
       d="m 147.42254,143.23205 c 0.41538,-0.74278 0.22406,0.62628 0,0 z"
       id="path916"
       inkscape:connector-curvature="0" />
    <path
       style="fill:#000000;stroke-width:0.17772366"
       d="m 95.008255,124.112 c 0.150873,-0.66985 0.14342,0.85293 0,0 z"
       id="path870"
       inkscape:connector-curvature="0" />
    <path
       style="fill:#000000;stroke-width:0.16902934"
       d="m 72.597311,178.99584 c -2.958664,-3.2726 0.860167,-6.99633 3.467625,-8.93178 3.380782,-2.2038 5.440719,-5.62473 8.217796,-8.42246 2.289642,-2.86404 6.764321,-6.15582 5.326714,-10.26902 -1.207277,-2.22103 -6.197553,-1.02705 -3.525539,-4.26637 3.0586,-5.2372 9.37069,-7.29122 12.800505,-12.20982 -2.811379,-0.89677 -5.595418,2.02888 -8.256903,2.95748 -2.434652,0.84416 -7.534439,4.10823 -8.59748,2.46178 4.18615,-2.40065 8.568238,-4.43663 13.044497,-6.25976 3.917406,-1.74265 7.980104,-4.02592 9.938534,-8.03111 -1.59318,-4.56934 -5.102688,-9.5518 -2.71604,-14.4702 1.02308,-3.05151 6.33561,-7.10893 8.01534,-2.73846 -1.00538,1.10573 -3.99203,-0.92992 -5.13096,1.64635 -2.38306,2.81172 -3.97179,8.51713 -0.0519,10.72186 3.46814,1.19236 7.2066,-0.46691 10.30641,-2.00511 2.86135,-1.69702 6.07977,-4.40534 6.05879,-7.99761 -0.64663,-3.60825 -4.94046,-4.02275 -7.8001,-4.93061 -3.27134,-1.38306 3.40679,-2.30395 4.68173,-0.9791 4.11327,1.832 5.99613,7.80928 2.75295,11.27096 -3.1025,5.16335 -10.11858,5.06688 -14.01893,9.25111 -1.95937,1.79008 -0.8054,5.31723 1.91885,3.29598 3.14408,-1.61569 6.15044,-3.48789 9.36076,-4.95313 5.26522,-3.05412 11.28807,-5.34602 15.37398,-10.02368 1.10284,-1.63149 -0.81936,2.90329 -1.77917,3.38883 -4.50333,4.46974 -11.12798,5.64807 -16.06073,9.51338 -6.56409,3.45568 -14.15391,6.08558 -18.532878,12.46842 -1.611977,0.8552 -5.793426,5.80602 -1.40849,3.58154 5.867058,-2.38284 12.127638,-4.43927 18.542178,-4.30784 1.27549,2.94514 -1.53973,5.95765 -3.81007,7.53638 -3.00217,-0.36505 1.93333,-4.14969 1.70573,-5.87075 -3.23854,-1.0745 -6.71489,0.97144 -9.95571,1.59919 -4.120308,1.72399 -8.805961,2.32602 -12.497225,4.97423 -3.093799,2.30169 3.464951,3.67421 1.862432,7.045 -0.8498,4.64901 -4.750895,7.81736 -7.722746,11.11487 -2.323421,4.10029 -7.855121,5.69941 -9.176902,10.4358 0.07622,2.36396 0.681276,3.07144 -2.333048,3.40365 z"
       id="path934"
       inkscape:connector-curvature="0" />
  </g>
</svg>
