<?xml version="1.0" encoding="UTF-8" standalone="no"?>
<!-- Created with Inkscape (http://www.inkscape.org/) -->

<svg
   xmlns:dc="http://purl.org/dc/elements/1.1/"
   xmlns:cc="http://creativecommons.org/ns#"
   xmlns:rdf="http://www.w3.org/1999/02/22-rdf-syntax-ns#"
   xmlns:svg="http://www.w3.org/2000/svg"
   xmlns="http://www.w3.org/2000/svg"
   xmlns:sodipodi="http://sodipodi.sourceforge.net/DTD/sodipodi-0.dtd"
   xmlns:inkscape="http://www.inkscape.org/namespaces/inkscape"
   width="100mm"
   height="100mm"
   viewBox="0 0 100 100"
   version="1.1"
   id="svg8"
   inkscape:version="0.92.3 (2405546, 2018-03-11)"
   sodipodi:docname="cloud (copy).svg">
  <defs
     id="defs2" />
  <sodipodi:namedview
     id="base"
     pagecolor="#ffffff"
     bordercolor="#666666"
     borderopacity="1.0"
     inkscape:pageopacity="0.0"
     inkscape:pageshadow="2"
     inkscape:zoom="1.4"
     inkscape:cx="104.91325"
     inkscape:cy="162.96951"
     inkscape:document-units="mm"
     inkscape:current-layer="layer1"
     showgrid="false"
     inkscape:window-width="1600"
     inkscape:window-height="836"
     inkscape:window-x="0"
     inkscape:window-y="27"
     inkscape:window-maximized="1" />
  <metadata
     id="metadata5">
    <rdf:RDF>
      <cc:Work
         rdf:about="">
        <dc:format>image/svg+xml</dc:format>
        <dc:type
           rdf:resource="http://purl.org/dc/dcmitype/StillImage" />
        <dc:title />
      </cc:Work>
    </rdf:RDF>
  </metadata>
  <g
     inkscape:label="Layer 1"
     inkscape:groupmode="layer"
     id="layer1"
     transform="translate(0,-197)">
    <g
       id="g4220"
       transform="matrix(0.26458333,0,0,0.26458333,-139.32448,196.37971)">
      <path
         inkscape:connector-curvature="0"
         id="path3007"
         d="m 697.38839,145.89732 c -13.86116,0.45076 -25.26766,9.27906 -35.59375,17.25 -10.46207,1.42244 -14.43597,12.70245 -16.875,21.59375 -3.20505,8.44337 -11.77217,11.92711 -19.5625,14.84375 -4.42759,1.77698 -6.35947,6.94946 -11.5625,7.28125 -8.41177,0.49429 -10.05345,13.67968 -2.09375,16.4375 7.80586,1.16952 15.72942,3.19483 22.78125,6.84375 9.79023,1.77019 19.83859,2.57596 29.1875,5.96875 10.47619,1.54167 21.64002,-0.3369 30.8125,-5.625 14.72049,9.2854 33.7991,7.36756 49.09375,0.8125 12.19714,5.30393 25.75365,1.15715 38.09375,0.46875 11.51862,3.43991 22.08078,-4.88715 32.71875,-7.875 8.22085,-3.63078 14.38673,-15.86209 6.65625,-22.84375 -4.33673,-2.81006 -8.90154,-5.30478 -12.90625,-8.5 -5.43881,-2.09894 -11.64106,-0.76199 -16.40625,2.375 -8.17943,-4.65344 -5.27153,-15.96748 -11.375,-21.96875 -8.19188,-7.25523 -20.20533,-8.65697 -27.125,-17.5 -6.66017,-5.28 -16.37134,-5.4758 -23.65625,-1.34375 -9.50878,-6.38211 -20.80569,-8.86976 -32.1875,-8.21875 z"
         style="fill:#99d8e7;fill-opacity:1;stroke:none" />
      <path
         inkscape:connector-curvature="0"
         style="fill:#d5f6ff;fill-opacity:1;stroke:none"
         d="m 701.60714,149.86607 c -15.60697,0 -28.99883,7.15313 -34.71875,17.34375 -0.73468,-0.12667 -1.47914,-0.21875 -2.25,-0.21875 -7.29805,0 -13.21875,5.9207 -13.21875,13.21875 0,1.34424 0.1894,2.65286 0.5625,3.875 -3.19414,0.88055 -5.5625,3.82665 -5.5625,7.375 0,0.58686 0.0657,1.16963 0.1875,1.71875 -3.21999,0.48441 -5.66165,2.41863 -5.875,4.75 -0.24193,-0.0163 -0.47063,-0.0312 -0.71875,-0.0312 -3.7625,0 -6.89804,1.91206 -7.4375,4.40625 -0.48823,-0.069 -0.98223,-0.125 -1.5,-0.125 -4.14214,0 -7.5,2.32745 -7.5,5.1875 0,0.85801 0.30882,1.66244 0.84375,2.375 -0.9984,-0.15394 -2.06243,-0.21875 -3.15625,-0.21875 -6.13681,0 -11.09375,2.60462 -11.09375,5.8125 0,3.20788 4.95694,5.78125 11.09375,5.78125 2.3013,0 4.44531,-0.34247 6.21875,-0.96875 1.967,4.28876 7.87239,7.40625 14.84375,7.40625 2.29193,0 4.44777,-0.36451 6.40625,-0.96875 5.45858,3.66669 13.35594,5.96875 22.15625,5.96875 9.61422,0 18.17154,-2.75918 23.625,-7.03125 5.42712,4.47232 14.18676,7.375 24.0625,7.375 9.33503,0 17.65686,-2.59499 23.125,-6.65625 5.0553,2.38368 11.40571,3.8125 18.3125,3.8125 7.06369,0 13.54706,-1.48638 18.65625,-3.96875 2.69961,1.59199 5.98041,2.53125 9.53125,2.53125 6.03305,0 11.3103,-2.71395 14.21875,-6.75 1.09108,0.30582 2.25064,0.5 3.46875,0.5 4.72124,0 8.72884,-2.50608 10.15625,-5.96875 2.85052,-1.15234 4.84375,-3.82235 4.84375,-6.90625 0,-4.14214 -3.59325,-7.5 -8.03125,-7.5 -0.69344,0 -1.35811,0.0959 -2,0.25 -0.35082,-3.83983 -3.79506,-6.84375 -8,-6.84375 -3.40656,0 -6.33069,1.98832 -7.5,4.78125 -1.26557,-1.19729 -2.88721,-1.9375 -4.65625,-1.9375 -0.24226,0 -0.48252,0.0361 -0.71875,0.0625 -1.22024,-2.52274 -3.54035,-4.2665 -6.21875,-4.34375 -0.058,-2.97062 -1.48363,-5.56149 -3.5625,-7 0.33531,-1.06267 0.5,-2.17656 0.5,-3.34375 0,-6.41045 -5.41869,-11.625 -12.125,-11.625 -0.17821,0 -0.35491,0.024 -0.53125,0.0312 -1.26765,-3.34116 -4.69762,-5.71875 -8.75,-5.71875 -1.31727,0 -2.58361,0.23096 -3.71875,0.6875 -0.97266,-6.64493 -7.26481,-11.78125 -14.875,-11.78125 -4.29488,0 -8.14053,1.66392 -10.875,4.28125 -6.90377,-5.88849 -16.97178,-9.625 -28.21875,-9.625 z"
         id="path3261" />
      <path
         inkscape:connector-curvature="0"
         id="path3296"
         d="m 693.88839,225.92857 -14.03125,-3.4375 3.21875,-11.21875 8.21875,3 -2.15625,4.125 6.0625,-5.25 -13.5625,-4.5 -5,17.21875 10.125,3.8125 c 2.68382,-1.03169 5.11447,-2.27041 7.125,-3.75 z"
         style="fill:#5fbbd3;fill-opacity:1;stroke:none" />
      <path
         inkscape:connector-curvature="0"
         id="path3301"
         d="m 730.38839,159.05357 0.125,-0.0312 -0.0625,-0.0312 c -0.0221,0.019 -0.0405,0.0434 -0.0625,0.0625 z"
         style="fill:#5fbbd3;fill-opacity:1;stroke:none" />
      <path
         inkscape:connector-curvature="0"
         id="path3299"
         d="m 723.23214,155.11607 -11.3125,4.28125 5,17.21875 13.59375,-4.5 -6.09375,-5.25 2.15625,4.125 -8.21875,3 -3.21875,-11.21875 14.375,-3.5 c -1.87112,-1.56059 -3.99857,-2.93759 -6.28125,-4.15625 z"
         style="fill:#5fbbd3;fill-opacity:1;stroke:none" />
      <path
         inkscape:connector-curvature="0"
         id="path3304"
         d="m 780.35714,181.95982 -9.78125,11.0625 -7.3125,-2.84375 v -6.625 l -2.15625,6.8125 9.65625,5.15625 9.5,-9 c 0.25279,-0.93544 0.4375,-1.89163 0.4375,-2.90625 0,-0.58586 -0.25639,-1.09344 -0.34375,-1.65625 z"
         style="fill:#5fbbd3;fill-opacity:1;stroke:none" />
      <path
         inkscape:connector-curvature="0"
         id="path3293"
         d="m 699.26339,155.92857 c -12.25033,0.25741 -24.4715,7.11299 -30,18.25 -6.76383,-5.45613 -16.02395,5.67395 -10.25396,11.62006 3.65191,3.56588 -4.02855,1.27431 -5.52729,4.12994 -4.21171,3.19887 4.7452,7.97071 -0.0312,11.09375 -2.87123,1.86381 -6.49691,-4.40899 -7.90625,-0.0625 -0.96105,2.83887 -3.98192,3.66132 -6.53125,2.96875 -2.41716,2.46538 -5.29175,5.36412 -9,4.1875 0.78506,1.39994 2.44086,3.5725 1,5.65625 1.83385,8.0505 12.21679,9.38292 18.6875,6.375 6.18369,4.20414 14.65487,7.20584 21.53125,6.125 -0.71828,-6.31316 3.20676,-11.85347 4,-17.96875 2.33979,-6.03982 10.56337,-7.24472 15,-2.90625 4.55514,0.79172 11.52695,2.37991 10.84375,8.46875 0.009,2.78022 -3.09562,5.21062 -4.1875,6.53125 6.70188,3.41747 13.30254,7.12563 21.03125,6.5625 8.35208,0.19729 16.6136,-2.47246 23.34375,-7.5 11.60091,6.20223 26.25587,6.13 37.78125,-0.15625 6.50855,5.93872 17.76915,3.376 21.5625,-4.4375 4.96852,3.94833 13.1487,-0.59582 13.9375,-6.03125 -2.46399,-2.16199 -7.27464,0.26989 -8.6875,-3.875 -0.5787,-2.48438 -2.58669,-5.05505 -4.96875,-2.65625 -3.5308,4.58446 -2.46931,11.21658 -4.90625,16.40625 -2.79916,-4.38922 -1.88535,-10.66595 -5.25,-14.53125 -4.40902,-0.65074 -7.76229,-4.29876 -11.375,-6.59375 -1.088,-1.95289 -3.01154,2.38973 -4.9375,2.40625 -5.65806,2.9371 -12.15663,-0.60835 -16.1875,-4.59375 -5.20327,-5.25472 -2.94357,-17.0503 5.4375,-16.78125 3.61791,0.21492 5.06109,4.6051 6.21875,6.71875 1.95906,-1.77962 5.66582,-5.92995 1.0625,-6.6875 -3.92591,-0.78917 -7.6431,-2.75323 -10.03125,-5.875 -3.47211,-1.24311 -7.13299,0.29148 -10.65625,0.84375 2.79315,-8.8898 -8.75916,-15.83953 -15.75,-10.625 -1.49027,1.40912 -3.63473,2.27499 -0.78125,3.625 2.38079,2.49291 5.61697,7.82191 2.625,10.09375 -7.72477,2.99288 -16.38853,3.78337 -23.09375,8.9375 -1.41361,-9.39884 -7.67038,-18.26544 -6.5,-27.84375 2.38631,-3.12216 -4.44544,-1.23918 -6.09375,-1.90625 l -0.99975,0.0222 -0.4065,0.009 z m -52.5625,43.40625 c 0.0429,-0.0577 -0.10364,-0.0325 0,0 z"
         style="fill:#eff9fb;fill-opacity:1;stroke:none" />
      <path
         id="path3299-1"
         d="m 651.32262,184.11417 11.3125,4.28125 -5,17.21875 -13.59375,-4.5 6.09375,-5.25 -2.15625,4.125 8.21875,3 3.21875,-11.21875 -14.375,-3.5 c 1.87112,-1.56059 3.99857,-2.93759 6.28125,-4.15625 z"
         style="fill:#5fbbd3;fill-opacity:1;stroke:none"
         inkscape:connector-curvature="0" />
    </g>
  </g>
</svg>
