<?xml version="1.0" encoding="UTF-8" standalone="no"?>
<!-- Created with Inkscape (http://www.inkscape.org/) -->

<svg
   xmlns:dc="http://purl.org/dc/elements/1.1/"
   xmlns:cc="http://creativecommons.org/ns#"
   xmlns:rdf="http://www.w3.org/1999/02/22-rdf-syntax-ns#"
   xmlns:svg="http://www.w3.org/2000/svg"
   xmlns="http://www.w3.org/2000/svg"
   xmlns:sodipodi="http://sodipodi.sourceforge.net/DTD/sodipodi-0.dtd"
   xmlns:inkscape="http://www.inkscape.org/namespaces/inkscape"
   width="100mm"
   height="100mm"
   viewBox="0 0 100 100"
   version="1.1"
   id="svg8"
   inkscape:version="0.92.3 (2405546, 2018-03-11)"
   sodipodi:docname="cloud2.svg">
  <defs
     id="defs2" />
  <sodipodi:namedview
     id="base"
     pagecolor="#ffffff"
     bordercolor="#666666"
     borderopacity="1.0"
     inkscape:pageopacity="0.0"
     inkscape:pageshadow="2"
     inkscape:zoom="1.4"
     inkscape:cx="73.484679"
     inkscape:cy="162.96951"
     inkscape:document-units="mm"
     inkscape:current-layer="layer1"
     showgrid="false"
     inkscape:window-width="800"
     inkscape:window-height="836"
     inkscape:window-x="800"
     inkscape:window-y="27"
     inkscape:window-maximized="0" />
  <metadata
     id="metadata5">
    <rdf:RDF>
      <cc:Work
         rdf:about="">
        <dc:format>image/svg+xml</dc:format>
        <dc:type
           rdf:resource="http://purl.org/dc/dcmitype/StillImage" />
        <dc:title />
      </cc:Work>
    </rdf:RDF>
  </metadata>
  <g
     inkscape:label="Layer 1"
     inkscape:groupmode="layer"
     id="layer1"
     transform="translate(0,-197)">
    <g
       id="g4790"
       transform="matrix(0.26458333,0,0,0.26458333,-78.999491,194.66238)">
      <path
         inkscape:connector-curvature="0"
         id="path3354"
         d="m 442.07589,148.01786 c -4.84593,0.29842 -7.14726,6.40971 -12.375,5.3125 -8.55647,0.68865 -16.54167,7.90003 -15.4375,17.03125 1.28154,5.04096 -3.95986,10.94398 0.5,15.09375 1.51863,1.44465 -0.97217,3.88415 0.5,5.75 -0.19528,1.52283 -3.59932,2.21698 -4.09375,4.53125 -0.81492,3.16803 -4.98923,1.44282 -6.65625,4.125 -3.38992,2.32291 -2.55794,7.88427 -6.65625,8.9375 -1.56405,2.29136 -3.42236,3.38081 -6.25,3.1875 -5.55947,0.90948 -11.47779,7.2527 -7.4375,12.75 7.57222,9.49618 20.06847,11.9558 31.28125,14.40625 7.05,4.63378 16.03889,7.46608 24.25,4.1875 3.55402,-1.17158 6.59579,-4.12996 10.0775,-0.92353 14.49737,6.39849 33.93628,8.74606 46.20375,-3.26397 2.13636,-2.30491 3.87737,-6.39271 7.75,-3.875 10.78981,2.21809 24.67443,4.34856 33.03125,-4.5625 2.7644,-0.11898 7.12416,2.61757 10.84375,2.3125 7.42852,0.71996 14.59102,-2.6372 20.59375,-6.0625 8.07737,1.0707 20.08985,2.27435 23.8125,-6.875 1.84475,-9.15417 -6.35719,-16.59444 -12.65625,-21.90625 -4.36748,-2.81518 -10.55787,-3.4042 -14.875,-0.125 -3.12344,-5.03662 -9.4979,-6.93458 -14.8125,-6.6875 -0.83649,-2.96321 -5.09179,-3.04867 -5.8125,-5.25 -0.93492,-5.08564 -6.71183,-7.96149 -11.375,-6.8125 -5.74718,-5.20072 -12.77907,3.92391 -18.46875,0.21875 -7.07253,-19.5346 -28.47209,-32.06881 -49.15625,-30.1875 -5.98525,0.65139 -11.89419,-2.07885 -17.625,-0.28125 -1.66617,-0.5865 -3.2524,-1.35637 -5.15625,-1.03125 z"
         style="fill:#99d8e7;fill-opacity:1;stroke:none" />
      <path
         sodipodi:nodetypes="ccccccccccsccccccccccc"
         inkscape:connector-curvature="0"
         id="path3350"
         d="m 418.30665,174.91227 c -1.79061,-19.8161 10.90323,-15.70355 18.95386,-19.26173 2.66848,-1.78491 3.23565,-5.99982 10.91282,-1.99259 3.44616,-2.45246 6.89231,-1.21204 10.33847,0 23.89467,-2.36418 42.70903,5.06329 52.84105,29.22469 3.35335,2.15021 7.63959,1.6034 12.06154,0.66421 2.501,-1.85249 5.01066,-3.60506 8.04103,0.66419 3.39105,-1.60858 9.89487,-2.54171 8.17442,7.38675 5.57524,-1.87619 6.51095,1.61286 7.90764,4.5688 6.39559,-1.4482 12.36405,-1.01938 16.08206,9.29877 0,0 6.89232,-15.27653 21.2513,3.98519 14.35898,19.26173 -18.37949,13.28396 -18.37949,13.28396 -10.33847,7.82466 -20.67695,8.33715 -31.01541,1.99258 -2.54887,8.31029 -13.36754,11.15581 -37.33335,5.3136 -11.0306,17.21811 -29.57214,17.06474 -52.84105,5.97776 -9.57265,6.64198 -19.14532,6.19919 -28.71797,-1.32838 -14.40509,0.0465 -46.69,-15.90437 -18.64627,-19.76477 1.59488,-1.27682 1.01435,-4.35053 6.01037,-2.81796 0.1907,-5.09271 1.47347,-11.02452 8.95782,-11.05653 1.60156,-0.78418 0.11981,-6.58092 8.27296,-5.54841 -3.2468,-5.00573 -2.11308,-8.11181 -1.14872,-11.29136 -5.59728,-1.64745 -2.01861,-5.9477 -1.72308,-9.29877 z"
         style="fill:#d5f6ff;fill-opacity:1;stroke:none" />
      <path
         inkscape:connector-curvature="0"
         id="path3437"
         d="m 443.26339,158.14286 c 2.53339,6.82454 -3.7024,13.22754 -3.40625,20.1875 -1.49172,5.60646 -8.51636,5.77055 -12.625,4.875 -5.03137,5.49968 0.22766,12.58897 4.52331,16.67112 4.66414,3.0804 -1.31813,2.57385 -3.83581,2.61013 -3.09791,0.007 -8.61058,-3.5645 -9.375,1.21875 -1.52693,3.26218 -6.69024,2.27462 -8.125,5 0.73022,4.98187 -2.3541,11.15946 -7.84375,9.8125 -1.31549,2.87283 -5.24207,2.8264 -7.25,3.21875 8.80733,6.84163 21.20343,4.87815 30.0625,11.5 5.9795,3.17766 12.73853,0.77127 17.90625,-2.875 3.75697,-1.86281 6.98519,1.82293 10.40625,2.78125 -3.05675,-4.74725 -1.2431,-12.24301 5.19813,-12.7961 6.14359,-2.19973 12.27611,-4.43054 18.42687,-6.61015 1.19876,7.47195 7.38327,14.17947 6.03125,22 5.4332,-2.58072 9.36387,-7.19077 11.875,-12.625 5.22407,1.41022 10.59149,2.69179 15.90625,3.375 1.78565,-7.33433 4.53534,-14.48166 6.09375,-21.875 9.50582,3.15307 19.04304,6.2064 28.5,9.5 -0.53772,2.82363 -5.65364,5.00493 -5,6.8125 7.81098,4.27332 17.78076,1.62188 23.9375,-4.40625 5.67485,-0.0979 12.17487,2.83719 17.34375,0.0937 -1.71867,-4.77042 -5.83795,-8.97815 -10.375,-10.84375 -4.11997,1.22076 -3.57666,8.73134 -9,7.53125 -6.11448,-1.48262 -3.4913,-10.89657 -9.9375,-11.59375 -3.07652,-0.60118 -6.12263,0.54117 -8.78125,2 -0.91236,-1.89549 -1.04859,-5.26338 -2.59375,-6.46875 -4.68725,3.86217 -9.85942,-2.85585 -7.6875,-7.5 -2.07183,0.61383 -5.72413,0.81206 -7.125,-1.5 -4.73864,4.079 -12.09489,1.51481 -17.0625,1.09375 -4.17512,5.49329 -11.97623,3.55058 -16.84375,0.375 -5.07821,-0.74999 -13.07343,-2.596 -12,-9.4375 3.16308,-5.09746 2.8618,-11.67478 6.625,-16.53125 -10.73021,-6.07052 -23.63637,-3.54537 -35.21875,-5.34375 -2.10431,0.48716 -2.66503,3.41658 -4.96875,1.4375 -1.26164,-0.51755 -2.50763,-1.59742 -3.78125,-1.6875 z m 26.6875,73.90625 c 1.29827,2.74688 2.32245,7.17163 6.34375,5.8125 -2.02843,-1.73125 -3.84199,-5.16684 -6.34375,-5.8125 z"
         style="fill:#eff9fb;fill-opacity:1;stroke:none" />
      <path
         sodipodi:nodetypes="cccccccccc"
         inkscape:connector-curvature="0"
         id="path3446"
         d="m 421.70089,160.83036 13.21875,3.21875 -3.21875,11.21875 -8.21875,-3 6.19686,-6.14531 -10.13436,7.27031 13.59375,4.5 5,-17.21875 -8.3125,-3.15625 c -3.02538,0.5752 -5.94636,1.33848 -8.125,3.3125 z"
         style="fill:#5fbbd3;fill-opacity:1;stroke:none" />
      <path
         inkscape:connector-curvature="0"
         id="path3444"
         d="m 469.29464,243.54911 -7.375,-14.28125 10.34375,-4.53125 4.8125,5.78125 -3.53125,-9.0625 -15.40625,5.53125 5.90625,15.59375 c 1.77893,0.3747 3.55759,0.79416 5.25,0.96875 z"
         style="fill:#5fbbd3;fill-opacity:1;stroke:none" />
      <path
         sodipodi:nodetypes="ccccccccccc"
         inkscape:connector-curvature="0"
         id="path3442"
         d="m 532.48214,229.33036 -12.84375,-3.15625 3.21875,-11.21875 9.48144,1.98985 -3.41894,5.13515 6.0625,-5.25 -13.5625,-4.5 -5,17.21875 8.375,3.15625 c 0.009,-0.002 0.0219,0.002 0.0312,0 3.37525,-0.57192 5.85718,-1.76153 7.65625,-3.375 z"
         style="fill:#5fbbd3;fill-opacity:1;stroke:none" />
      <path
         sodipodi:nodetypes="cccccccccc"
         inkscape:connector-curvature="0"
         id="path3440"
         d="m 504.10714,170.42411 -3.6875,13.4375 -11.125,-3.53125 3.25,-8.125 7.09296,4.52284 -7.61913,-5.96621 -5.38008,10.91212 17.0625,5.5 4.40625,-10.71875 c -1.23415,-2.19951 -2.58697,-4.17651 -4,-6.03125 z"
         style="fill:#5fbbd3;fill-opacity:1;stroke:none" />
      <path
         sodipodi:nodetypes="cccccccsc"
         id="path3304-1"
         d="m 405.93106,204.30482 8.58169,10.05235 7.3125,-2.84375 v -6.625 l 2.15625,6.8125 -9.65625,5.15625 -9.75254,-9.12627 c -0.25279,-0.93544 0.0676,-1.32342 0.50952,-2.33804 0.23395,-0.53712 0.76147,-0.52523 0.84883,-1.08804 z"
         style="fill:#5fbbd3;fill-opacity:1;stroke:none"
         inkscape:connector-curvature="0" />
    </g>
  </g>
</svg>
